<svg width="80" height="80" viewBox="0 0 80 80" fill="none" xmlns="http://www.w3.org/2000/svg">
<rect width="80" height="80" rx="40" fill="#F2EEE9"/>
<path d="M32 33H35L37 31H43L45 33H48C48.5304 33 49.0391 33.2107 49.4142 33.5858C49.7893 33.9609 50 34.4696 50 35V47C50 47.5304 49.7893 48.0391 49.4142 48.4142C49.0391 48.7893 48.5304 49 48 49H32C31.4696 49 30.9609 48.7893 30.5858 48.4142C30.2107 48.0391 30 47.5304 30 47V35C30 34.4696 30.2107 33.9609 30.5858 33.5858C30.9609 33.2107 31.4696 33 32 33ZM40 36C38.6739 36 37.4021 36.5268 36.4645 37.4645C35.5268 38.4021 35 39.6739 35 41C35 42.3261 35.5268 43.5979 36.4645 44.5355C37.4021 45.4732 38.6739 46 40 46C41.3261 46 42.5979 45.4732 43.5355 44.5355C44.4732 43.5979 45 42.3261 45 41C45 39.6739 44.4732 38.4021 43.5355 37.4645C42.5979 36.5268 41.3261 36 40 36ZM40 38C40.7956 38 41.5587 38.3161 42.1213 38.8787C42.6839 39.4413 43 40.2044 43 41C43 41.7956 42.6839 42.5587 42.1213 43.1213C41.5587 43.6839 40.7956 44 40 44C39.2044 44 38.4413 43.6839 37.8787 43.1213C37.3161 42.5587 37 41.7956 37 41C37 40.2044 37.3161 39.4413 37.8787 38.8787C38.4413 38.3161 39.2044 38 40 38Z" fill="#9F9F9F"/>
</svg>
