<svg width="24" height="24" viewBox="0 0 24 24" fill="none" xmlns="http://www.w3.org/2000/svg">
<path d="M12.4445 3.01172C13.4788 3.06633 14.49 3.3117 15.3009 3.74609L15.4669 3.83984C16.2939 4.32885 17 5.10843 17.0001 6.14258V8H19.8575L19.9581 8.00488C20.4569 8.05486 20.8491 8.47171 20.8575 8.9834L21.0001 17.7842C21.0028 17.9552 20.9619 18.1233 20.882 18.2725L20.7892 18.415L19.0743 20.6143C18.8849 20.8573 18.5944 20.9999 18.2863 21H5.71399C5.44445 20.9999 5.18784 20.8912 5.0011 20.7012L4.92591 20.6143L3.21106 18.415C3.07089 18.2351 2.99652 18.0122 3.00013 17.7842L3.1427 8.9834L3.14954 8.88281C3.20768 8.385 3.63102 8.0002 4.1427 8H7.00013V6.14258C7.00026 5.03981 7.80319 4.22628 8.69934 3.74609L8.8761 3.65625C9.77463 3.21958 10.8882 3.00002 12.0001 3L12.4445 3.01172ZM5.00501 17.4629L6.20227 19H17.798L18.9943 17.4629L18.8732 10H5.12708L5.00501 17.4629ZM12.0001 5C11.1814 5.00002 10.4312 5.15502 9.8722 5.39941L9.64466 5.50879C9.04247 5.83141 9.00035 6.10776 9.00013 6.14258V8H15.0001V6.14258C14.9999 6.11211 14.968 5.89728 14.5568 5.62793L14.3556 5.50879C13.8539 5.24018 13.1432 5.05265 12.3468 5.00977L12.0001 5Z" fill="#222222"/>
</svg>
