<svg width="24" height="24" viewBox="0 0 24 24" fill="none" xmlns="http://www.w3.org/2000/svg">
<path fill-rule="evenodd" clip-rule="evenodd" d="M9 12C9 14.625 8.4975 16.641 7.776 17.916C7.0815 19.146 6.3255 19.5 5.625 19.5C4.9245 19.5 4.17 19.1445 3.474 17.916C3.066 17.196 2.73 16.242 2.514 15.0735C2.9385 15.507 3.4845 15.75 4.125 15.75C5.739 15.75 6.75 14.205 6.75 12C6.75 9.795 5.739 8.25 4.125 8.25C3.82441 8.24665 3.5263 8.3048 3.249 8.42088C2.9717 8.53696 2.72107 8.70851 2.5125 8.925C2.73 7.758 3.0675 6.8025 3.4725 6.084C4.17 4.854 4.926 4.5 5.625 4.5C6.324 4.5 7.08 4.8555 7.776 6.084C8.4975 7.359 9 9.375 9 12ZM11.25 12C11.25 17.733 9.0825 21.75 5.625 21.75C2.1675 21.75 0 17.733 0 12C0 6.267 2.1675 2.25 5.625 2.25C9.0825 2.25 11.25 6.267 11.25 12ZM21.75 12C21.75 14.625 21.2475 16.641 20.526 17.916C19.8315 19.146 19.0755 19.5 18.375 19.5C17.6745 19.5 16.92 19.1445 16.224 17.916C15.816 17.196 15.48 16.242 15.264 15.0735C15.6885 15.507 16.2345 15.75 16.875 15.75C18.489 15.75 19.5 14.205 19.5 12C19.5 9.795 18.489 8.25 16.875 8.25C16.5744 8.24665 16.2763 8.3048 15.999 8.42088C15.7217 8.53696 15.4711 8.70851 15.2625 8.925C15.48 7.758 15.8175 6.8025 16.2225 6.084C16.92 4.854 17.676 4.5 18.375 4.5C19.074 4.5 19.83 4.8555 20.526 6.084C21.2475 7.359 21.75 9.3765 21.75 12ZM24 12C24 17.733 21.8325 21.75 18.375 21.75C14.9175 21.75 12.75 17.733 12.75 12C12.75 6.267 14.9175 2.25 18.375 2.25C21.8325 2.25 24 6.267 24 12Z" fill="#5E5E5E"/>
</svg>
