<svg width="24" height="24" viewBox="0 0 24 24" fill="none" xmlns="http://www.w3.org/2000/svg">
<path d="M15.7549 14.255H14.9649L14.6849 13.985C15.6988 12.8091 16.2561 11.3077 16.2549 9.75501C16.2549 8.46943 15.8737 7.21272 15.1594 6.1438C14.4452 5.07488 13.43 4.24176 12.2423 3.74979C11.0546 3.25782 9.74767 3.1291 8.4868 3.3799C7.22592 3.63071 6.06773 4.24977 5.15869 5.15881C4.24965 6.06785 3.63059 7.22604 3.37978 8.48692C3.12898 9.7478 3.2577 11.0547 3.74967 12.2424C4.24164 13.4302 5.07476 14.4453 6.14368 15.1596C7.2126 15.8738 8.46931 16.255 9.75489 16.255C11.3649 16.255 12.8449 15.665 13.9849 14.685L14.2549 14.965V15.755L19.2549 20.745L20.7449 19.255L15.7549 14.255ZM9.75489 14.255C7.26489 14.255 5.25489 12.245 5.25489 9.75501C5.25489 7.26501 7.26489 5.25501 9.75489 5.25501C12.2449 5.25501 14.2549 7.26501 14.2549 9.75501C14.2549 12.245 12.2449 14.255 9.75489 14.255Z" fill="#222222"/>
</svg>
