<svg width="24" height="24" viewBox="0 0 24 24" fill="none" xmlns="http://www.w3.org/2000/svg">
<path d="M12 21.35L10.55 20.03C5.4 15.36 2 12.27 2 8.5C2 5.41 4.42 3 7.5 3C9.24 3 10.91 3.81 12 5.08C13.09 3.81 14.76 3 16.5 3C19.58 3 22 5.41 22 8.5C22 12.27 18.6 15.36 13.45 20.03L12 21.35Z" fill="black" fill-opacity="0.4"/>
<path d="M16.5 3.75C19.1667 3.75 21.25 5.82511 21.25 8.5C21.25 10.1384 20.5174 11.6887 19.0752 13.4531C17.6247 15.2276 15.5359 17.1264 12.9463 19.4746L12.9453 19.4756L12 20.335L11.0547 19.4756L11.0537 19.4746L9.20703 17.792C7.45927 16.1844 6.01253 14.7838 4.9248 13.4531C3.48258 11.6887 2.75 10.1384 2.75 8.5C2.75 5.82511 4.83332 3.75 7.5 3.75C9.0132 3.75 10.4779 4.45833 11.4307 5.56836L12 6.23145L12.5693 5.56836C13.5221 4.45833 14.9868 3.75 16.5 3.75Z" stroke="white" stroke-opacity="0.4" stroke-width="1.5"/>
</svg>
