<svg width="147" height="63" viewBox="0 0 147 63" fill="none" xmlns="http://www.w3.org/2000/svg">
<path d="M61.4303 0.619048C61.7156 0.95238 62.2861 1.90476 62.4762 2.52381C62.6664 1.90476 63.1893 0.95238 63.5221 0.619048C63.9975 0.190477 64.568 0 65.0909 0C65.6139 0 66.1368 0.190477 66.5647 0.57143C67.1827 1.2381 67.3253 2.19048 67.0401 2.95238C67.2778 2.85714 67.563 2.80952 67.8483 2.80952C68.3712 2.80952 68.9892 3 69.4171 3.42857C70.2253 4.28571 70.1778 5.52381 69.3696 6.42857C68.8942 6.90476 68.5614 7.28571 67.7057 7.52381C68.5614 7.80952 68.8942 8.14286 69.3696 8.61905C70.1778 9.42857 70.2253 10.7143 69.4171 11.619C68.9892 12 68.4188 12.2381 67.8958 12.2381C67.6106 12.2381 67.3253 12.1429 67.0401 12.0476C67.3253 12.8571 67.1827 13.8095 66.5647 14.4286C66.1844 14.8095 65.6139 15 65.0909 15C64.5205 15 63.95 14.8095 63.5221 14.381C63.2369 14.0476 62.6664 13.2381 62.4762 12.5238C62.1434 13.7143 61.2402 15 59.9091 15C59.3861 15 58.8632 14.8095 58.4353 14.4286C57.7697 13.8095 57.6271 12.8571 57.9599 12.0476C57.6747 12.1429 57.3894 12.2381 57.1042 12.2381C56.5337 12.2381 55.9632 12 55.5829 11.619C54.7747 10.7143 54.8222 9.42857 55.6304 8.61905C56.1058 8.14286 56.4862 7.7619 57.3419 7.52381C56.4862 7.2381 56.1058 6.90476 55.6304 6.42857C54.8222 5.52381 54.7747 4.28571 55.5829 3.42857C56.0108 3 56.5812 2.80952 57.1517 2.80952C57.437 2.80952 57.7222 2.85714 57.9599 2.95238C57.6271 2.19048 57.7697 1.2381 58.4353 0.57143C58.8632 0.190477 59.3386 0 59.8615 0C60.432 0 61.0025 0.238095 61.4303 0.619048Z" fill="#2DC80E"/>
<path d="M18.304 3C20.224 3 21.9093 3.21333 23.36 3.64C24.8533 4.024 25.92 4.45067 26.56 4.92L25.536 12.6C25.1093 12.344 24.5973 12.1307 24 11.96C23.4027 11.7893 22.6347 11.704 21.696 11.704C20.288 11.704 19.1147 12.0027 18.176 12.6C17.28 13.1973 16.832 14.3067 16.832 15.928V19.896L17.664 21.688V49.272H4.736V15.224C4.736 12.9627 5.09867 11.064 5.824 9.528C6.592 7.94933 7.616 6.69067 8.896 5.752C10.2187 4.77067 11.6907 4.06667 13.312 3.64C14.9333 3.21333 16.5973 3 18.304 3ZM26.176 17.272V26.168H0V17.272H26.176Z" fill="#2DC80E"/>
<path d="M132.011 40.8721C135.979 40.8721 138.987 41.6828 141.035 43.3041C143.125 44.8828 144.171 47.2508 144.171 50.4081C144.171 53.2241 143.424 55.5494 141.931 57.3841C140.48 59.2188 138.389 60.5628 135.659 61.4161C132.928 62.3121 129.643 62.7601 125.803 62.7601C119.744 62.7601 115.413 62.0774 112.811 60.7121C110.251 59.3468 108.971 57.4054 108.971 54.8881C108.971 53.0961 109.76 51.6668 111.339 50.6001C112.917 49.5761 115.499 49.0428 119.083 49.0001L118.891 50.0881C115.861 49.7468 113.643 48.9361 112.235 47.6561C110.869 46.3334 110.187 44.6054 110.187 42.4721C110.187 40.2961 111.061 38.5681 112.811 37.2881C114.56 36.0081 116.8 35.3254 119.531 35.2401L123.755 37.1601H122.603C121.067 37.2028 120 37.3948 119.403 37.7361C118.805 38.0774 118.507 38.5254 118.507 39.0801C118.507 39.6774 118.741 40.1254 119.211 40.4241C119.723 40.7228 120.512 40.8721 121.579 40.8721H132.011ZM125.931 54.6961C127.851 54.6961 129.429 54.5894 130.667 54.3761C131.947 54.2054 132.885 53.9281 133.483 53.5441C134.123 53.1601 134.443 52.7121 134.443 52.2001C134.443 51.7734 134.293 51.4321 133.995 51.1761C133.696 50.9628 133.12 50.8561 132.267 50.8561H120.299C119.701 50.8561 119.232 51.0054 118.891 51.3041C118.549 51.6028 118.379 51.9868 118.379 52.4561C118.379 53.1814 119.04 53.7361 120.363 54.1201C121.728 54.5041 123.584 54.6961 125.931 54.6961ZM126.571 16.3601C130.112 16.3601 133.077 16.7868 135.467 17.6401C137.899 18.4508 139.733 19.6668 140.971 21.2881C142.251 22.8668 142.891 24.8721 142.891 27.3041C142.891 29.6508 142.251 31.6348 140.971 33.2561C139.733 34.8774 137.899 36.0934 135.467 36.9041C133.077 37.7148 130.112 38.1201 126.571 38.1201C121.237 38.1201 117.184 37.2028 114.411 35.3681C111.68 33.5334 110.315 30.8454 110.315 27.3041C110.315 24.8721 110.933 22.8668 112.171 21.2881C113.408 19.6668 115.243 18.4508 117.675 17.6401C120.107 16.7868 123.072 16.3601 126.571 16.3601ZM126.571 23.3361C125.461 23.3361 124.565 23.6561 123.883 24.2961C123.243 24.9361 122.923 25.9174 122.923 27.2401C122.923 28.5201 123.243 29.5014 123.883 30.1841C124.565 30.8241 125.461 31.1441 126.571 31.1441C127.68 31.1441 128.555 30.8241 129.195 30.1841C129.877 29.5014 130.219 28.5201 130.219 27.2401C130.219 25.9174 129.877 24.9361 129.195 24.2961C128.555 23.6561 127.68 23.3361 126.571 23.3361Z" fill="#2DC80E"/>
<path d="M73.251 48.9999V16.9999H84.899L85.475 29.3519L84.131 27.9439C84.4723 25.4692 85.1763 23.3785 86.243 21.6719C87.3096 19.9225 88.675 18.5999 90.339 17.7039C92.0456 16.8079 94.0083 16.3599 96.227 16.3599C98.403 16.3599 100.259 16.7865 101.795 17.6399C103.374 18.4505 104.59 19.6879 105.443 21.3519C106.296 22.9732 106.723 24.9785 106.723 27.3679V48.9999H93.795V30.6959C93.795 28.9039 93.4963 27.6879 92.899 27.0479C92.3443 26.3652 91.5336 26.0239 90.467 26.0239C89.6563 26.0239 88.9096 26.2372 88.227 26.6639C87.587 27.0479 87.075 27.6879 86.691 28.5839C86.3496 29.4799 86.179 30.6532 86.179 32.1039V48.9999H73.251Z" fill="#2DC80E"/>
<path d="M68.928 17V49H56V17H68.928Z" fill="#2DC80E"/>
<path d="M29.9658 48.9999V16.9999H41.5498L41.9338 24.4879C42.6592 21.9705 43.7898 19.9865 45.3258 18.5359C46.9045 17.0852 48.9525 16.3599 51.4698 16.3599C52.3658 16.3599 53.0912 16.4452 53.6458 16.6159C54.2005 16.7439 54.6058 16.9145 54.8618 17.1279L53.7098 27.6239C53.2832 27.4532 52.7285 27.3039 52.0458 27.1759C51.3632 27.0479 50.5738 26.9839 49.6778 26.9839C48.3978 26.9839 47.2458 27.2185 46.2218 27.6879C45.1978 28.1572 44.3872 28.8612 43.7898 29.7999C43.1925 30.6959 42.8938 31.8479 42.8938 33.2559V48.9999H29.9658Z" fill="#2DC80E"/>
<path d="M134.94 9.56726C133.003 11.5046 131.742 19.7814 131.742 19.7814C131.742 19.7814 140.018 18.5204 141.956 16.583C143.893 14.6457 144.719 10.6792 142.781 8.74188C140.844 6.80453 136.877 7.62991 134.94 9.56726Z" fill="#2DC80E"/>
</svg>
