<svg width="22" height="16" viewBox="0 0 22 16" fill="none" xmlns="http://www.w3.org/2000/svg">
<path fill-rule="evenodd" clip-rule="evenodd" d="M11.3149 0.626101C11.1918 0.54419 11.0473 0.500488 10.8994 0.500488C10.7516 0.500488 10.607 0.54419 10.4839 0.626101L6.17291 3.5001H0.399414V5.0001H1.99841L3.40691 14.8551C3.43221 15.034 3.52126 15.1978 3.65768 15.3163C3.7941 15.4348 3.96871 15.5001 4.14941 15.5001H17.6494C17.8301 15.5001 18.0047 15.4348 18.1412 15.3163C18.2776 15.1978 18.3666 15.034 18.3919 14.8551L19.8004 5.0001H21.3994V3.5001H15.6259L11.3149 0.626101ZM10.8994 2.1516L12.9229 3.5001H8.87441L10.8994 2.1516ZM7.14941 11.7501V7.2501H8.64941V11.7501H7.14941ZM10.1494 11.7501V7.2501H11.6494V11.7501H10.1494ZM13.1494 7.2501V11.7501H14.6494V7.2501H13.1494Z" fill="#DFD7CF"/>
</svg>
