<svg width="25" height="24" viewBox="0 0 25 24" fill="none" xmlns="http://www.w3.org/2000/svg">
<path fill-rule="evenodd" clip-rule="evenodd" d="M8.69971 7C8.69971 5.93913 9.12113 4.92172 9.87128 4.17157C10.6214 3.42143 11.6388 3 12.6997 3C13.7606 3 14.778 3.42143 15.5281 4.17157C16.2783 4.92172 16.6997 5.93913 16.6997 7C16.6997 8.06087 16.2783 9.07828 15.5281 9.82843C14.778 10.5786 13.7606 11 12.6997 11C11.6388 11 10.6214 10.5786 9.87128 9.82843C9.12113 9.07828 8.69971 8.06087 8.69971 7ZM8.69971 13C7.37362 13 6.10186 13.5268 5.16417 14.4645C4.22649 15.4021 3.69971 16.6739 3.69971 18C3.69971 18.7956 4.01578 19.5587 4.57839 20.1213C5.141 20.6839 5.90406 21 6.69971 21H18.6997C19.4954 21 20.2584 20.6839 20.821 20.1213C21.3836 19.5587 21.6997 18.7956 21.6997 18C21.6997 16.6739 21.1729 15.4021 20.2352 14.4645C19.2976 13.5268 18.0258 13 16.6997 13H8.69971Z" fill="#DFD7CF"/>
</svg>
