<svg width="25" height="24" viewBox="0 0 25 24" fill="none" xmlns="http://www.w3.org/2000/svg">
<path fill-rule="evenodd" clip-rule="evenodd" d="M8.7002 7C8.7002 5.93913 9.12162 4.92172 9.87177 4.17157C10.6219 3.42143 11.6393 3 12.7002 3C13.7611 3 14.7785 3.42143 15.5286 4.17157C16.2788 4.92172 16.7002 5.93913 16.7002 7C16.7002 8.06087 16.2788 9.07828 15.5286 9.82843C14.7785 10.5786 13.7611 11 12.7002 11C11.6393 11 10.6219 10.5786 9.87177 9.82843C9.12162 9.07828 8.7002 8.06087 8.7002 7ZM8.7002 13C7.37411 13 6.10234 13.5268 5.16466 14.4645C4.22698 15.4021 3.7002 16.6739 3.7002 18C3.7002 18.7956 4.01627 19.5587 4.57888 20.1213C5.14148 20.6839 5.90455 21 6.7002 21H18.7002C19.4958 21 20.2589 20.6839 20.8215 20.1213C21.3841 19.5587 21.7002 18.7956 21.7002 18C21.7002 16.6739 21.1734 15.4021 20.2357 14.4645C19.298 13.5268 18.0263 13 16.7002 13H8.7002Z" fill="#817468"/>
</svg>
