<svg width="25" height="24" viewBox="0 0 25 24" fill="none" xmlns="http://www.w3.org/2000/svg">
<path d="M18.9273 2.99994C19.1445 3.00266 19.3605 3.0329 19.5701 3.08994C18.5416 3.35994 17.7701 4.23422 17.6673 5.31422L17.6454 5.50065L17.6429 5.51994V19.0714C17.6246 19.5707 17.4135 20.0434 17.0538 20.3902C16.6941 20.737 16.2139 20.9308 15.7143 20.9308C15.2147 20.9308 14.7345 20.737 14.3748 20.3902C14.0151 20.0434 13.8039 19.5707 13.7857 19.0714V17.1428C13.7857 16.8018 13.6503 16.4748 13.4091 16.2337C13.168 15.9925 12.841 15.8571 12.5 15.8571H6.07143V6.21422C6.07143 5.36174 6.41008 4.54418 7.01287 3.94138C7.61567 3.33859 8.43323 2.99994 9.28571 2.99994H18.9273ZM12.5 17.1428V19.0714C12.5 19.7978 12.752 20.4612 13.1596 20.9999H12.8574L8.864 21.0025L9.35 21.0038C7.64514 21.0064 6.68857 21.0077 6.13571 20.9999H6.07143C5.38944 20.9999 4.73539 20.729 4.25315 20.2468C3.77092 19.7645 3.5 19.1105 3.5 18.4285V17.7857C3.5 17.6152 3.56773 17.4516 3.68829 17.3311C3.80885 17.2105 3.97236 17.1428 4.14286 17.1428H12.5ZM20.2143 4.28565C19.9829 4.28565 19.7643 4.34994 19.5714 4.46565C19.1857 4.68422 18.9286 5.09565 18.9286 5.57137V8.1428H20.2143C20.9214 8.1428 21.5 7.56422 21.5 6.85708V5.57137C21.5 4.86422 20.9214 4.28565 20.2143 4.28565Z" fill="#DFD7CF"/>
</svg>
