<svg width="25" height="24" viewBox="0 0 25 24" fill="none" xmlns="http://www.w3.org/2000/svg">
<path d="M18.9273 3C19.1445 3.00272 19.3605 3.03296 19.5701 3.09C18.5416 3.36 17.7701 4.23429 17.6673 5.31429L17.6454 5.50071L17.6429 5.52V19.0714C17.6246 19.5707 17.4135 20.0435 17.0538 20.3903C16.6941 20.7371 16.2139 20.9309 15.7143 20.9309C15.2147 20.9309 14.7345 20.7371 14.3748 20.3903C14.0151 20.0435 13.8039 19.5707 13.7857 19.0714V17.1429C13.7857 16.8019 13.6503 16.4748 13.4091 16.2337C13.168 15.9926 12.841 15.8571 12.5 15.8571H6.07143V6.21429C6.07143 5.3618 6.41008 4.54424 7.01287 3.94144C7.61567 3.33865 8.43323 3 9.28571 3H18.9273ZM12.5 17.1429V19.0714C12.5 19.7979 12.752 20.4613 13.1596 21H12.8574L8.864 21.0026L9.35 21.0039C7.64514 21.0064 6.68857 21.0077 6.13571 21H6.07143C5.38944 21 4.73539 20.7291 4.25315 20.2468C3.77092 19.7646 3.5 19.1106 3.5 18.4286V17.7857C3.5 17.6152 3.56773 17.4517 3.68829 17.3311C3.80885 17.2106 3.97236 17.1429 4.14286 17.1429H12.5ZM20.2143 4.28571C19.9829 4.28571 19.7643 4.35 19.5714 4.46571C19.1857 4.68429 18.9286 5.09571 18.9286 5.57143V8.14286H20.2143C20.9214 8.14286 21.5 7.56429 21.5 6.85714V5.57143C21.5 4.86429 20.9214 4.28571 20.2143 4.28571Z" fill="#817468"/>
</svg>
