<svg width="24" height="24" viewBox="0 0 24 24" fill="none" xmlns="http://www.w3.org/2000/svg">
<path d="M15.7549 14.2549H14.9649L14.6849 13.9849C15.6988 12.809 16.2561 11.3076 16.2549 9.75489C16.2549 8.46931 15.8737 7.2126 15.1594 6.14368C14.4452 5.07476 13.43 4.24164 12.2423 3.74967C11.0546 3.2577 9.74767 3.12898 8.4868 3.37978C7.22592 3.63059 6.06773 4.24965 5.15869 5.15869C4.24965 6.06773 3.63059 7.22592 3.37978 8.4868C3.12898 9.74767 3.2577 11.0546 3.74967 12.2423C4.24164 13.43 5.07476 14.4452 6.14368 15.1594C7.2126 15.8737 8.46931 16.2549 9.75489 16.2549C11.3649 16.2549 12.8449 15.6649 13.9849 14.6849L14.2549 14.9649V15.7549L19.2549 20.7449L20.7449 19.2549L15.7549 14.2549ZM9.75489 14.2549C7.26489 14.2549 5.25489 12.2449 5.25489 9.75489C5.25489 7.26489 7.26489 5.25489 9.75489 5.25489C12.2449 5.25489 14.2549 7.26489 14.2549 9.75489C14.2549 12.2449 12.2449 14.2549 9.75489 14.2549Z" fill="#5E5E5E"/>
</svg>
