<svg width="21" height="20" viewBox="0 0 21 20" fill="none" xmlns="http://www.w3.org/2000/svg">
<path d="M10.0518 1.03809C10.2352 0.666726 10.7648 0.666727 10.9482 1.03809L13.3457 5.89551C13.5641 6.33806 13.9863 6.64468 14.4746 6.71582L19.8359 7.49512C20.2458 7.55491 20.409 8.05846 20.1123 8.34766L16.2334 12.1289C15.88 12.4735 15.7193 12.9705 15.8027 13.457L16.7178 18.7959C16.7877 19.2043 16.3589 19.5161 15.9922 19.3232L11.1982 16.8018C10.7613 16.572 10.2387 16.572 9.80176 16.8018L5.00781 19.3232C4.64105 19.5161 4.21232 19.2043 4.28223 18.7959L5.19727 13.457C5.28071 12.9705 5.12005 12.4735 4.7666 12.1289L0.887695 8.34766C0.591008 8.05846 0.754173 7.55491 1.16406 7.49512L6.52539 6.71582C7.01373 6.64468 7.43588 6.33806 7.6543 5.89551L10.0518 1.03809Z" stroke="#D9D9D9" stroke-linejoin="bevel"/>
</svg>
